<?xml version="1.0" encoding="UTF-8"?>
<svg xmlns="http://www.w3.org/2000/svg" xmlns:xlink="http://www.w3.org/1999/xlink" viewBox="200 410 1080 220">
<path fill-rule="nonzero" fill="rgb(3.921509%, 33.332825%, 33.724976%)" fill-opacity="1" d="M 243.1875 547.25 C 237.054688 541.625 233.988281 534.230469 233.988281 525.0625 L 233.988281 511.3125 C 233.988281 510.15625 234.621094 509.574219 235.882812 509.574219 L 250.300781 509.574219 C 251.566406 509.574219 252.199219 510.15625 252.199219 511.3125 L 252.199219 525.410156 C 252.199219 530.050781 253.621094 533.851562 256.46875 536.808594 C 259.3125 539.769531 263.011719 541.246094 267.566406 541.246094 C 272.117188 541.246094 275.816406 539.769531 278.664062 536.808594 C 281.507812 533.851562 282.929688 530.050781 282.929688 525.410156 L 282.929688 435.496094 C 282.929688 434.335938 283.5625 433.753906 284.828125 433.753906 L 299.246094 433.753906 C 300.507812 433.753906 301.144531 434.335938 301.144531 435.496094 L 301.144531 525.0625 C 301.144531 534.230469 298.074219 541.625 291.941406 547.25 C 285.808594 552.878906 277.683594 555.691406 267.566406 555.691406 C 257.445312 555.691406 249.320312 552.878906 243.1875 547.25 "/>
<path fill-rule="nonzero" fill="rgb(3.921509%, 33.332825%, 33.724976%)" fill-opacity="1" d="M 454.855469 535.761719 C 458.207031 532.164062 459.882812 527.058594 459.882812 520.449219 C 459.882812 513.71875 458.238281 508.46875 454.949219 504.699219 C 451.660156 500.929688 447.109375 499.042969 441.292969 499.042969 L 428.011719 499.042969 C 427.503906 499.042969 427.253906 499.277344 427.253906 499.738281 L 427.253906 540.457031 C 427.253906 540.925781 427.503906 541.15625 428.011719 541.15625 L 441.101562 541.15625 C 446.917969 541.15625 451.503906 539.359375 454.855469 535.761719 M 427.253906 449.097656 L 427.253906 485.988281 C 427.253906 486.453125 427.503906 486.6875 428.011719 486.6875 L 440.152344 486.6875 C 446.097656 486.6875 450.710938 485.03125 454 481.726562 C 457.289062 478.417969 458.933594 473.808594 458.933594 467.890625 C 458.933594 461.742188 457.289062 456.957031 454 453.535156 C 450.710938 450.113281 446.097656 448.402344 440.152344 448.402344 L 428.011719 448.402344 C 427.503906 448.402344 427.253906 448.632812 427.253906 449.097656 M 468.324219 547.074219 C 461.808594 552.875 453.242188 555.773438 442.621094 555.773438 L 410.941406 555.773438 C 409.671875 555.773438 409.042969 555.195312 409.042969 554.03125 L 409.042969 435.699219 C 409.042969 434.539062 409.671875 433.957031 410.941406 433.957031 L 439.964844 433.957031 C 451.46875 433.957031 460.480469 436.714844 466.996094 442.222656 C 473.507812 447.734375 476.765625 455.769531 476.765625 466.324219 C 476.765625 478.855469 471.898438 487.5 462.160156 492.253906 C 461.527344 492.601562 461.460938 492.894531 461.96875 493.125 C 467.027344 495.910156 470.980469 499.796875 473.828125 504.785156 C 476.671875 509.773438 478.09375 515.691406 478.09375 522.535156 C 478.09375 533.09375 474.835938 541.273438 468.324219 547.074219 "/>
<path fill-rule="nonzero" fill="rgb(78.823%, 39.215%, 25.882%)" fill-opacity="1" d="M 339.171875 520.273438 L 369.570312 520.273438 C 370.027344 520.273438 370.257812 520.042969 370.257812 519.578125 L 354.714844 457.796875 C 354.5625 457.566406 354.40625 457.449219 354.257812 457.449219 C 354.105469 457.449219 353.949219 457.566406 353.800781 457.796875 L 338.488281 519.578125 C 338.488281 520.042969 338.71875 520.273438 339.171875 520.273438 M 379.167969 554.207031 L 374.144531 534.195312 C 374.144531 533.964844 374.027344 533.789062 373.800781 533.671875 C 373.570312 533.558594 373.304688 533.5 373 533.5 L 335.746094 533.5 C 335.4375 533.5 335.175781 533.558594 334.945312 533.671875 C 334.71875 533.789062 334.605469 533.964844 334.605469 534.195312 L 329.804688 554.207031 C 329.652344 555.25 328.8125 555.773438 327.289062 555.773438 L 309.917969 555.773438 C 309.15625 555.773438 308.582031 555.597656 308.207031 555.25 C 307.824219 554.902344 307.707031 554.441406 307.863281 553.859375 L 341.917969 435.523438 C 342.222656 434.480469 343.058594 433.957031 344.429688 433.957031 L 364.773438 433.957031 C 366.292969 433.957031 367.132812 434.480469 367.285156 435.523438 L 401.570312 553.859375 L 401.570312 554.207031 C 401.570312 555.25 400.882812 555.773438 399.511719 555.773438 L 381.683594 555.773438 C 380.3125 555.773438 379.472656 555.25 379.167969 554.207031 "/>
<path fill-rule="nonzero" fill="rgb(78.823%, 39.215%, 25.882%)" fill-opacity="1" d="M 498.730469 552.503906 L 498.730469 499.574219 C 498.730469 498.417969 499.492188 497.835938 501.015625 497.835938 L 518.386719 497.835938 C 519.910156 497.835938 520.671875 498.417969 520.671875 499.574219 L 520.671875 552.503906 C 520.671875 553.664062 519.910156 554.246094 518.386719 554.246094 L 501.015625 554.246094 C 499.492188 554.246094 498.730469 553.664062 498.730469 552.503906 "/>
<path fill-rule="nonzero" fill="rgb(3.921509%, 33.332825%, 33.724976%)" fill-opacity="1" d="M 600.441406 547.261719 C 594.179688 541.640625 591.050781 534.175781 591.050781 524.863281 L 591.050781 464.410156 C 591.050781 455.101562 594.179688 447.664062 600.441406 442.097656 C 606.703125 436.539062 614.953125 433.753906 625.199219 433.753906 C 635.566406 433.753906 643.882812 436.539062 650.144531 442.097656 C 656.40625 447.664062 659.535156 455.101562 659.535156 464.410156 L 659.535156 467.132812 C 659.535156 468.269531 658.898438 468.835938 657.636719 468.835938 L 643.21875 469.519531 C 641.953125 469.519531 641.324219 468.949219 641.324219 467.816406 L 641.324219 463.386719 C 641.324219 458.734375 639.835938 454.988281 636.863281 452.148438 C 633.890625 449.3125 630.003906 447.890625 625.199219 447.890625 C 620.390625 447.890625 616.535156 449.3125 613.625 452.148438 C 610.714844 454.988281 609.261719 458.734375 609.261719 463.386719 L 609.261719 526.058594 C 609.261719 530.714844 610.714844 534.460938 613.625 537.296875 C 616.535156 540.136719 620.390625 541.554688 625.199219 541.554688 C 630.003906 541.554688 633.890625 540.136719 636.863281 537.296875 C 639.835938 534.460938 641.324219 530.714844 641.324219 526.058594 L 641.324219 521.628906 C 641.324219 520.496094 641.953125 519.925781 643.21875 519.925781 L 657.636719 520.609375 C 658.898438 520.609375 659.535156 521.175781 659.535156 522.3125 L 659.535156 524.863281 C 659.535156 534.175781 656.40625 541.640625 650.144531 547.261719 C 643.882812 552.878906 635.566406 555.691406 625.199219 555.691406 C 614.953125 555.691406 606.703125 552.878906 600.441406 547.261719 "/>
<path fill-rule="nonzero" fill="rgb(3.921509%, 33.332825%, 33.724976%)" fill-opacity="1" d="M 716.257812 537.15625 C 718.914062 534.546875 720.238281 531.097656 720.238281 526.804688 L 720.238281 493.042969 C 720.238281 488.867188 718.914062 485.445312 716.257812 482.777344 C 713.601562 480.109375 710.25 478.773438 706.203125 478.773438 C 702.152344 478.773438 698.832031 480.109375 696.242188 482.777344 C 693.648438 485.445312 692.355469 488.867188 692.355469 493.042969 L 692.355469 526.804688 C 692.355469 531.097656 693.648438 534.546875 696.242188 537.15625 C 698.832031 539.769531 702.152344 541.074219 706.203125 541.074219 C 710.25 541.074219 713.601562 539.769531 716.257812 537.15625 M 682.773438 548.121094 C 677.015625 543.074219 674.144531 536.375 674.144531 528.019531 L 674.144531 492 C 674.144531 483.761719 677.050781 477.09375 682.867188 471.984375 C 688.683594 466.882812 696.460938 464.328125 706.203125 464.328125 C 716.066406 464.328125 723.90625 466.882812 729.726562 471.984375 C 735.542969 477.09375 738.453125 483.761719 738.453125 492 L 738.453125 528.019531 C 738.453125 536.375 735.542969 543.074219 729.726562 548.121094 C 723.90625 553.167969 716.066406 555.691406 706.203125 555.691406 C 696.335938 555.691406 688.527344 553.167969 682.773438 548.121094 "/>
<path fill-rule="nonzero" fill="rgb(3.921509%, 33.332825%, 33.724976%)" fill-opacity="1" d="M 813.101562 471.898438 C 817.335938 476.832031 819.457031 483.820312 819.457031 492.871094 L 819.457031 552.558594 C 819.457031 553.71875 818.824219 554.296875 817.5625 554.296875 L 803.140625 554.296875 C 801.875 554.296875 801.246094 553.71875 801.246094 552.558594 L 801.246094 494.261719 C 801.246094 489.386719 800.105469 485.621094 797.832031 482.949219 C 795.554688 480.28125 792.390625 478.945312 788.34375 478.945312 C 784.171875 478.945312 780.914062 480.25 778.574219 482.863281 C 776.234375 485.472656 774.9375 489.15625 774.6875 493.914062 C 774.6875 494.609375 774.621094 494.957031 774.496094 494.957031 L 774.496094 552.558594 C 774.496094 553.71875 773.863281 554.296875 772.597656 554.296875 L 758.179688 554.296875 C 756.914062 554.296875 756.285156 553.71875 756.285156 552.558594 L 756.285156 467.460938 C 756.285156 466.304688 756.914062 465.722656 758.179688 465.722656 L 772.597656 465.722656 C 773.863281 465.722656 774.496094 466.304688 774.496094 467.460938 L 774.496094 472.160156 C 774.496094 472.394531 774.621094 472.539062 774.875 472.59375 C 775.128906 472.65625 775.378906 472.507812 775.636719 472.160156 C 780.1875 467.054688 786.574219 464.503906 794.792969 464.503906 C 802.761719 464.503906 808.863281 466.96875 813.101562 471.898438 "/>
<path fill-rule="nonzero" fill="rgb(3.921509%, 33.332825%, 33.724976%)" fill-opacity="1" d="M 843.265625 548.992188 C 837.761719 544.757812 835.011719 539.046875 835.011719 531.851562 L 835.011719 530.285156 C 835.011719 529.125 835.640625 528.542969 836.910156 528.542969 L 850.375 528.542969 C 851.640625 528.542969 852.273438 529.125 852.273438 530.285156 L 852.273438 531.503906 C 852.273438 534.632812 853.601562 537.273438 856.257812 539.421875 C 858.914062 541.566406 862.199219 542.640625 866.121094 542.640625 C 869.914062 542.640625 872.980469 541.59375 875.324219 539.507812 C 877.660156 537.417969 878.832031 534.753906 878.832031 531.503906 C 878.832031 528.953125 878.007812 526.804688 876.367188 525.0625 C 874.71875 523.324219 872.792969 521.960938 870.578125 520.972656 C 868.367188 519.988281 864.984375 518.625 860.429688 516.882812 C 855.5 514.914062 851.421875 513 848.195312 511.140625 C 844.96875 509.289062 842.089844 506.617188 839.5625 503.136719 C 837.03125 499.65625 835.769531 495.25 835.769531 489.910156 C 835.769531 482.023438 838.453125 475.875 843.832031 471.464844 C 849.207031 467.054688 856.449219 464.851562 865.554688 464.851562 C 874.910156 464.851562 882.277344 467.113281 887.65625 471.636719 C 893.027344 476.164062 895.714844 482.3125 895.714844 490.085938 L 895.714844 490.605469 C 895.714844 491.765625 895.082031 492.347656 893.820312 492.347656 L 880.730469 492.347656 C 879.464844 492.347656 878.832031 491.765625 878.832031 490.605469 L 878.832031 489.386719 C 878.832031 486.257812 877.628906 483.589844 875.230469 481.382812 C 872.824219 479.179688 869.726562 478.078125 865.933594 478.078125 C 862.011719 478.078125 858.914062 479.179688 856.636719 481.382812 C 854.359375 483.589844 853.222656 486.257812 853.222656 489.386719 C 853.222656 491.824219 853.980469 493.855469 855.5 495.480469 C 857.015625 497.105469 858.847656 498.410156 861 499.394531 C 863.148438 500.382812 866.5625 501.804688 871.242188 503.65625 C 876.429688 505.746094 880.730469 507.746094 884.144531 509.660156 C 887.558594 511.578125 890.5625 514.273438 893.15625 517.753906 C 895.746094 521.234375 897.042969 525.585938 897.042969 530.804688 C 897.042969 538.347656 894.230469 544.320312 888.601562 548.730469 C 882.972656 553.140625 875.351562 555.34375 865.742188 555.34375 C 856.257812 555.34375 848.765625 553.226562 843.265625 548.992188 "/>
<path fill-rule="nonzero" fill="rgb(3.921509%, 33.332825%, 33.724976%)" fill-opacity="1" d="M 957.367188 465.722656 L 971.785156 465.722656 C 973.050781 465.722656 973.683594 466.304688 973.683594 467.460938 L 973.683594 552.558594 C 973.683594 553.71875 973.050781 554.296875 971.785156 554.296875 L 957.367188 554.296875 C 956.105469 554.296875 955.472656 553.71875 955.472656 552.558594 L 955.472656 547.511719 C 955.472656 547.164062 955.378906 546.988281 955.1875 546.988281 C 954.996094 546.988281 954.777344 547.105469 954.523438 547.335938 C 950.730469 552.792969 944.65625 555.515625 936.3125 555.515625 C 928.722656 555.515625 922.589844 553.402344 917.910156 549.164062 C 913.230469 544.929688 910.890625 538.460938 910.890625 529.761719 L 910.890625 467.460938 C 910.890625 466.304688 911.523438 465.722656 912.789062 465.722656 L 927.207031 465.722656 C 928.46875 465.722656 929.101562 466.304688 929.101562 467.460938 L 929.101562 526.105469 C 929.101562 536.085938 933.402344 541.074219 942.003906 541.074219 C 946.300781 541.074219 949.621094 539.652344 951.964844 536.808594 C 954.300781 533.96875 955.472656 530.050781 955.472656 525.0625 L 955.472656 467.460938 C 955.472656 466.304688 956.105469 465.722656 957.367188 465.722656 "/>
<path fill-rule="nonzero" fill="rgb(3.921509%, 33.332825%, 33.724976%)" fill-opacity="1" d="M 992.84375 552.558594 L 992.84375 435.496094 C 992.84375 434.335938 993.472656 433.753906 994.738281 433.753906 L 1009.15625 433.753906 C 1010.417969 433.753906 1011.054688 434.335938 1011.054688 435.496094 L 1011.054688 552.558594 C 1011.054688 553.71875 1010.417969 554.296875 1009.15625 554.296875 L 994.738281 554.296875 C 993.472656 554.296875 992.84375 553.71875 992.84375 552.558594 "/>
<path fill-rule="nonzero" fill="rgb(3.921509%, 33.332825%, 33.724976%)" fill-opacity="1" d="M 1065.6875 477.902344 L 1052.410156 477.902344 C 1051.902344 477.902344 1051.652344 478.136719 1051.652344 478.597656 L 1051.652344 527.5 C 1051.652344 532.140625 1052.535156 535.359375 1054.304688 537.15625 C 1056.078125 538.957031 1058.859375 539.796875 1062.652344 539.679688 L 1064.359375 539.679688 C 1065.625 539.679688 1066.257812 540.261719 1066.257812 541.421875 L 1066.257812 552.558594 C 1066.257812 553.71875 1065.625 554.296875 1064.359375 554.296875 L 1058.480469 554.296875 C 1050.382812 554.296875 1044.28125 552.847656 1040.171875 549.945312 C 1036.0625 547.050781 1034.007812 541.535156 1034.007812 533.414062 L 1034.007812 478.597656 C 1034.007812 478.136719 1033.753906 477.902344 1033.25 477.902344 L 1025.851562 477.902344 C 1024.585938 477.902344 1023.953125 477.324219 1023.953125 476.164062 L 1023.953125 467.460938 C 1023.953125 466.304688 1024.585938 465.722656 1025.851562 465.722656 L 1033.25 465.722656 C 1033.753906 465.722656 1034.007812 465.488281 1034.007812 465.027344 L 1034.007812 445.359375 C 1034.007812 444.203125 1034.640625 443.621094 1035.90625 443.621094 L 1049.753906 443.621094 C 1051.015625 443.621094 1051.652344 444.203125 1051.652344 445.359375 L 1051.652344 465.027344 C 1051.652344 465.488281 1051.902344 465.722656 1052.410156 465.722656 L 1065.6875 465.722656 C 1066.949219 465.722656 1067.585938 466.304688 1067.585938 467.460938 L 1067.585938 476.164062 C 1067.585938 477.324219 1066.949219 477.902344 1065.6875 477.902344 "/>
<path fill-rule="nonzero" fill="rgb(3.921509%, 33.332825%, 33.724976%)" fill-opacity="1" d="M 1083.140625 552.558594 L 1083.140625 467.460938 C 1083.140625 466.304688 1083.769531 465.722656 1085.035156 465.722656 L 1099.453125 465.722656 C 1100.714844 465.722656 1101.351562 466.304688 1101.351562 467.460938 L 1101.351562 552.558594 C 1101.351562 553.71875 1100.714844 554.296875 1099.453125 554.296875 L 1085.035156 554.296875 C 1083.769531 554.296875 1083.140625 553.71875 1083.140625 552.558594 M 1083.328125 452.898438 C 1081.050781 450.808594 1079.914062 448.140625 1079.914062 444.890625 C 1079.914062 441.644531 1081.050781 438.976562 1083.328125 436.886719 C 1085.605469 434.796875 1088.511719 433.753906 1092.054688 433.753906 C 1095.722656 433.753906 1098.660156 434.773438 1100.875 436.800781 C 1103.089844 438.832031 1104.195312 441.527344 1104.195312 444.890625 C 1104.195312 448.140625 1103.058594 450.808594 1100.78125 452.898438 C 1098.503906 454.984375 1095.59375 456.03125 1092.054688 456.03125 C 1088.511719 456.03125 1085.605469 454.984375 1083.328125 452.898438 "/>
<path fill-rule="nonzero" fill="rgb(3.921509%, 33.332825%, 33.724976%)" fill-opacity="1" d="M 1179.03125 471.898438 C 1183.269531 476.832031 1185.386719 483.820312 1185.386719 492.871094 L 1185.386719 552.558594 C 1185.386719 553.71875 1184.753906 554.296875 1183.492188 554.296875 L 1169.074219 554.296875 C 1167.808594 554.296875 1167.179688 553.71875 1167.179688 552.558594 L 1167.179688 494.261719 C 1167.179688 489.386719 1166.039062 485.621094 1163.761719 482.949219 C 1161.484375 480.28125 1158.324219 478.945312 1154.277344 478.945312 C 1150.101562 478.945312 1146.847656 480.25 1144.507812 482.863281 C 1142.167969 485.472656 1140.871094 489.15625 1140.617188 493.914062 C 1140.617188 494.609375 1140.554688 494.957031 1140.429688 494.957031 L 1140.429688 552.558594 C 1140.429688 553.71875 1139.796875 554.296875 1138.53125 554.296875 L 1124.113281 554.296875 C 1122.847656 554.296875 1122.21875 553.71875 1122.21875 552.558594 L 1122.21875 467.460938 C 1122.21875 466.304688 1122.847656 465.722656 1124.113281 465.722656 L 1138.53125 465.722656 C 1139.796875 465.722656 1140.429688 466.304688 1140.429688 467.460938 L 1140.429688 472.160156 C 1140.429688 472.394531 1140.554688 472.539062 1140.808594 472.59375 C 1141.058594 472.65625 1141.3125 472.507812 1141.566406 472.160156 C 1146.121094 467.054688 1152.503906 464.503906 1160.726562 464.503906 C 1168.695312 464.503906 1174.796875 466.96875 1179.03125 471.898438 "/>
<path fill-rule="nonzero" fill="rgb(3.921509%, 33.332825%, 33.724976%)" fill-opacity="1" d="M 1244.101562 535.941406 C 1246.570312 533.328125 1247.800781 529.933594 1247.800781 525.757812 L 1247.800781 493.042969 C 1247.800781 488.867188 1246.570312 485.445312 1244.101562 482.777344 C 1241.636719 480.109375 1238.378906 478.773438 1234.332031 478.773438 C 1230.285156 478.773438 1226.996094 480.109375 1224.46875 482.777344 C 1221.9375 485.445312 1220.671875 488.867188 1220.671875 493.042969 L 1220.671875 525.757812 C 1220.671875 529.933594 1221.9375 533.328125 1224.46875 535.941406 C 1226.996094 538.546875 1230.285156 539.855469 1234.332031 539.855469 C 1238.378906 539.855469 1241.636719 538.546875 1244.101562 535.941406 M 1249.699219 465.722656 L 1264.117188 465.722656 C 1265.378906 465.722656 1266.011719 466.304688 1266.011719 467.460938 L 1266.011719 551.6875 C 1266.011719 563.871094 1262.976562 573.292969 1256.90625 579.964844 C 1250.835938 586.636719 1240.402344 589.972656 1225.605469 589.972656 L 1220.484375 589.800781 C 1219.21875 589.679688 1218.585938 589.042969 1218.585938 587.882812 L 1218.585938 576.75 C 1218.585938 575.585938 1219.28125 575.007812 1220.671875 575.007812 C 1231.042969 575.355469 1238.15625 573.46875 1242.015625 569.351562 C 1245.871094 565.230469 1247.800781 558.824219 1247.800781 550.121094 L 1247.800781 546.46875 C 1247.800781 546.238281 1247.707031 546.089844 1247.515625 546.035156 C 1247.328125 545.976562 1247.105469 546.0625 1246.851562 546.292969 C 1242.550781 551.628906 1236.417969 554.296875 1228.453125 554.296875 C 1220.105469 554.296875 1213.683594 551.835938 1209.195312 546.902344 C 1204.707031 541.972656 1202.460938 535.273438 1202.460938 526.804688 L 1202.460938 492 C 1202.460938 483.414062 1204.738281 476.65625 1209.289062 471.726562 C 1213.84375 466.796875 1220.230469 464.328125 1228.453125 464.328125 C 1236.667969 464.328125 1242.800781 467 1246.851562 472.335938 C 1247.105469 472.570312 1247.328125 472.625 1247.515625 472.507812 C 1247.707031 472.394531 1247.800781 472.21875 1247.800781 471.984375 L 1247.800781 467.460938 C 1247.800781 466.304688 1248.433594 465.722656 1249.699219 465.722656 "/>
<path fill-rule="nonzero" fill="rgb(78.823%, 39.215%, 25.882%)" fill-opacity="1" d="M 526.996094 452.253906 C 527.226562 448.476562 526.261719 444.703125 524.132812 441.574219 C 521.378906 437.523438 516.175781 433.53125 506.375 433.753906 C 486.777344 434.207031 485.683594 450.878906 486.390625 455.53125 C 487.101562 460.183594 488.0625 463.535156 491.578125 470.496094 C 494.109375 475.507812 492.59375 482.550781 491.546875 486.109375 C 491.261719 487.078125 492.121094 488 493.109375 487.78125 C 496.71875 486.980469 503.753906 485.820312 508.179688 487.621094 C 509.058594 487.976562 510.0625 487.433594 510.222656 486.496094 C 510.273438 486.203125 510.296875 485.855469 510.277344 485.449219 C 510.179688 483.128906 516.421875 482.296875 520.628906 483.710938 C 524.9375 485.160156 527.355469 481.96875 527.195312 479.90625 C 527.03125 477.84375 526.550781 476.394531 527.386719 475.492188 C 528.226562 474.589844 528 474.203125 527.773438 473.785156 C 527.550781 473.363281 528.804688 473.125 528.804688 472.511719 C 528.804688 471.898438 527.113281 470.65625 527.515625 470.078125 C 527.921875 469.496094 530.5625 469.289062 530.660156 468.320312 C 530.75 467.417969 530.714844 466.210938 528.46875 462.519531 C 528.269531 462.191406 528.054688 461.875 527.84375 461.554688 C 527.492188 461.039062 526.582031 459.007812 526.996094 452.253906 "/>
<path fill-rule="nonzero" fill="rgb(100%, 100%, 100%)" fill-opacity="1" d="M 502.875 441.820312 C 501.273438 441.953125 500.078125 443.367188 500.214844 444.972656 C 500.347656 446.574219 501.761719 447.769531 503.367188 447.632812 C 504.96875 447.496094 506.164062 446.082031 506.027344 444.480469 C 505.894531 442.878906 504.476562 441.683594 502.875 441.820312 M 503.410156 448.164062 C 501.515625 448.324219 499.839844 446.914062 499.679688 445.015625 C 499.519531 443.121094 500.933594 441.445312 502.828125 441.285156 C 504.726562 441.125 506.398438 442.539062 506.5625 444.433594 C 506.722656 446.332031 505.308594 448.003906 503.410156 448.164062 "/>
<path fill-rule="nonzero" fill="rgb(100%, 100%, 100%)" fill-opacity="1" d="M 503.164062 439.78125 L 502.25 439.859375 L 502.164062 441.679688 L 503.554688 441.5625 Z M 503.164062 439.78125 "/>
<path fill-rule="nonzero" fill="rgb(100%, 100%, 100%)" fill-opacity="1" d="M 503.078125 449.667969 L 503.992188 449.59375 L 504.078125 447.773438 L 502.6875 447.890625 Z M 503.078125 449.667969 "/>
<path fill-rule="nonzero" fill="rgb(100%, 100%, 100%)" fill-opacity="1" d="M 508.066406 444.769531 L 507.988281 443.855469 L 506.167969 443.769531 L 506.285156 445.15625 Z M 508.066406 444.769531 "/>
<path fill-rule="nonzero" fill="rgb(100%, 100%, 100%)" fill-opacity="1" d="M 498.175781 444.683594 L 498.253906 445.597656 L 500.074219 445.683594 L 499.957031 444.292969 Z M 498.175781 444.683594 "/>
<path fill-rule="nonzero" fill="rgb(100%, 100%, 100%)" fill-opacity="1" d="M 506.648438 441.261719 L 505.945312 440.667969 L 504.597656 441.894531 L 505.664062 442.792969 Z M 506.648438 441.261719 "/>
<path fill-rule="nonzero" fill="rgb(100%, 100%, 100%)" fill-opacity="1" d="M 499.59375 448.191406 L 500.296875 448.785156 L 501.644531 447.558594 L 500.578125 446.65625 Z M 499.59375 448.191406 "/>
<path fill-rule="nonzero" fill="rgb(100%, 100%, 100%)" fill-opacity="1" d="M 506.585938 448.253906 L 507.179688 447.550781 L 505.953125 446.203125 L 505.054688 447.269531 Z M 506.585938 448.253906 "/>
<path fill-rule="nonzero" fill="rgb(100%, 100%, 100%)" fill-opacity="1" d="M 499.65625 441.199219 L 499.0625 441.902344 L 500.289062 443.246094 L 501.1875 442.183594 Z M 499.65625 441.199219 "/>
<path fill-rule="nonzero" fill="rgb(100%, 100%, 100%)" fill-opacity="1" d="M 502.949219 442.699219 C 501.832031 442.792969 501 443.777344 501.09375 444.898438 C 501.1875 446.015625 502.175781 446.847656 503.292969 446.753906 C 504.410156 446.660156 505.242188 445.671875 505.148438 444.554688 C 505.054688 443.433594 504.066406 442.601562 502.949219 442.699219 M 503.324219 447.15625 C 501.988281 447.265625 500.804688 446.269531 500.691406 444.929688 C 500.578125 443.59375 501.578125 442.410156 502.914062 442.296875 C 504.253906 442.183594 505.433594 443.179688 505.550781 444.519531 C 505.664062 445.859375 504.664062 447.039062 503.324219 447.15625 "/>
<path fill-rule="nonzero" fill="rgb(100%, 100%, 100%)" fill-opacity="1" d="M 495.3125 446.964844 C 493.753906 446.710938 492.28125 447.769531 492.03125 449.328125 C 491.777344 450.886719 492.835938 452.359375 494.394531 452.613281 C 495.953125 452.863281 497.425781 451.804688 497.675781 450.246094 C 497.929688 448.6875 496.871094 447.214844 495.3125 446.964844 M 494.265625 453.414062 C 492.261719 453.089844 490.902344 451.199219 491.226562 449.199219 C 491.550781 447.199219 493.441406 445.835938 495.441406 446.160156 C 497.441406 446.484375 498.804688 448.378906 498.480469 450.375 C 498.15625 452.378906 496.265625 453.738281 494.265625 453.414062 "/>
<path fill-rule="nonzero" fill="rgb(100%, 100%, 100%)" fill-opacity="1" d="M 496.128906 444.875 L 495.199219 444.726562 L 494.660156 446.515625 L 496.070312 446.746094 Z M 496.128906 444.875 "/>
<path fill-rule="nonzero" fill="rgb(100%, 100%, 100%)" fill-opacity="1" d="M 493.578125 454.699219 L 494.507812 454.851562 L 495.046875 453.058594 L 493.636719 452.828125 Z M 493.578125 454.699219 "/>
<path fill-rule="nonzero" fill="rgb(100%, 100%, 100%)" fill-opacity="1" d="M 499.765625 451.0625 L 499.914062 450.132812 L 498.125 449.59375 L 497.894531 451.007812 Z M 499.765625 451.0625 "/>
<path fill-rule="nonzero" fill="rgb(100%, 100%, 100%)" fill-opacity="1" d="M 489.941406 448.511719 L 489.792969 449.441406 L 491.582031 449.980469 L 491.808594 448.570312 Z M 489.941406 448.511719 "/>
<path fill-rule="nonzero" fill="rgb(100%, 100%, 100%)" fill-opacity="1" d="M 499.226562 447.214844 L 498.675781 446.453125 L 497.03125 447.335938 L 497.867188 448.5 Z M 499.226562 447.214844 "/>
<path fill-rule="nonzero" fill="rgb(100%, 100%, 100%)" fill-opacity="1" d="M 490.480469 452.359375 L 491.03125 453.121094 L 492.675781 452.238281 L 491.839844 451.078125 Z M 490.480469 452.359375 "/>
<path fill-rule="nonzero" fill="rgb(100%, 100%, 100%)" fill-opacity="1" d="M 497.425781 454.160156 L 498.1875 453.609375 L 497.304688 451.964844 L 496.144531 452.800781 Z M 497.425781 454.160156 "/>
<path fill-rule="nonzero" fill="rgb(100%, 100%, 100%)" fill-opacity="1" d="M 492.28125 445.414062 L 491.515625 445.964844 L 492.402344 447.613281 L 493.5625 446.773438 Z M 492.28125 445.414062 "/>
<path fill-rule="nonzero" fill="rgb(100%, 100%, 100%)" fill-opacity="1" d="M 495.140625 448.03125 C 494.167969 447.875 493.253906 448.535156 493.09375 449.503906 C 492.9375 450.472656 493.597656 451.386719 494.570312 451.546875 C 495.535156 451.703125 496.453125 451.042969 496.609375 450.074219 C 496.769531 449.105469 496.109375 448.1875 495.140625 448.03125 M 494.46875 452.148438 C 493.167969 451.9375 492.28125 450.707031 492.492188 449.40625 C 492.703125 448.101562 493.9375 447.21875 495.238281 447.429688 C 496.539062 447.640625 497.425781 448.871094 497.210938 450.171875 C 497 451.472656 495.773438 452.359375 494.46875 452.148438 "/>
<path fill-rule="nonzero" fill="rgb(100%, 100%, 100%)" fill-opacity="1" d="M 516.527344 444.113281 C 514.976562 443.445312 513.167969 444.160156 512.5 445.710938 C 511.832031 447.265625 512.546875 449.070312 514.101562 449.738281 C 515.652344 450.40625 517.457031 449.691406 518.128906 448.140625 C 518.796875 446.585938 518.078125 444.78125 516.527344 444.113281 M 513.625 450.84375 C 511.464844 449.910156 510.464844 447.398438 511.398438 445.238281 C 512.328125 443.078125 514.84375 442.078125 517.003906 443.011719 C 519.160156 443.941406 520.160156 446.457031 519.230469 448.613281 C 518.296875 450.773438 515.785156 451.773438 513.625 450.84375 "/>
<path fill-rule="nonzero" fill="rgb(100%, 100%, 100%)" fill-opacity="1" d="M 518.039062 441.933594 L 517.070312 441.515625 L 515.996094 443.316406 L 517.46875 443.949219 Z M 518.039062 441.933594 "/>
<path fill-rule="nonzero" fill="rgb(100%, 100%, 100%)" fill-opacity="1" d="M 512.585938 451.917969 L 513.554688 452.335938 L 514.628906 450.535156 L 513.15625 449.902344 Z M 512.585938 451.917969 "/>
<path fill-rule="nonzero" fill="rgb(100%, 100%, 100%)" fill-opacity="1" d="M 520.304688 449.652344 L 520.722656 448.683594 L 518.921875 447.609375 L 518.289062 449.082031 Z M 520.304688 449.652344 "/>
<path fill-rule="nonzero" fill="rgb(100%, 100%, 100%)" fill-opacity="1" d="M 510.320312 444.199219 L 509.902344 445.167969 L 511.703125 446.242188 L 512.339844 444.769531 Z M 510.320312 444.199219 "/>
<path fill-rule="nonzero" fill="rgb(100%, 100%, 100%)" fill-opacity="1" d="M 520.773438 445.324219 L 520.382812 444.34375 L 518.347656 444.855469 L 518.941406 446.347656 Z M 520.773438 445.324219 "/>
<path fill-rule="nonzero" fill="rgb(100%, 100%, 100%)" fill-opacity="1" d="M 509.855469 448.527344 L 510.246094 449.507812 L 512.277344 448.996094 L 511.683594 447.503906 Z M 509.855469 448.527344 "/>
<path fill-rule="nonzero" fill="rgb(100%, 100%, 100%)" fill-opacity="1" d="M 516.914062 452.386719 L 517.894531 451.996094 L 517.382812 449.960938 L 515.894531 450.554688 Z M 516.914062 452.386719 "/>
<path fill-rule="nonzero" fill="rgb(100%, 100%, 100%)" fill-opacity="1" d="M 513.714844 441.46875 L 512.730469 441.855469 L 513.242188 443.890625 L 514.734375 443.296875 Z M 513.714844 441.46875 "/>
<path fill-rule="nonzero" fill="rgb(100%, 100%, 100%)" fill-opacity="1" d="M 516.078125 445.15625 C 515.101562 444.734375 513.964844 445.1875 513.542969 446.164062 C 513.121094 447.136719 513.574219 448.273438 514.550781 448.699219 C 515.527344 449.117188 516.664062 448.664062 517.085938 447.6875 C 517.503906 446.714844 517.054688 445.578125 516.078125 445.15625 M 514.359375 449.136719 C 513.140625 448.613281 512.574219 447.191406 513.101562 445.972656 C 513.628906 444.753906 515.046875 444.1875 516.265625 444.714844 C 517.484375 445.242188 518.050781 446.660156 517.523438 447.878906 C 517 449.097656 515.578125 449.664062 514.359375 449.136719 "/>
<path fill-rule="nonzero" fill="rgb(100%, 100%, 100%)" fill-opacity="1" d="M 506.59375 450.863281 C 505.464844 450.894531 504.570312 451.835938 504.597656 452.964844 C 504.628906 454.09375 505.570312 454.988281 506.699219 454.960938 C 507.828125 454.929688 508.726562 453.988281 508.695312 452.859375 C 508.664062 451.726562 507.722656 450.832031 506.59375 450.863281 M 506.722656 455.761719 C 505.148438 455.804688 503.835938 454.558594 503.796875 452.984375 C 503.753906 451.414062 505 450.101562 506.570312 450.058594 C 508.144531 450.019531 509.457031 451.265625 509.496094 452.835938 C 509.539062 454.410156 508.292969 455.722656 506.722656 455.761719 "/>
<path fill-rule="nonzero" fill="rgb(100%, 100%, 100%)" fill-opacity="1" d="M 506.902344 449.113281 L 506.195312 449.132812 L 506.046875 450.527344 L 507.121094 450.5 Z M 506.902344 449.113281 "/>
<path fill-rule="nonzero" fill="rgb(100%, 100%, 100%)" fill-opacity="1" d="M 506.394531 456.707031 L 507.097656 456.6875 L 507.246094 455.292969 L 506.171875 455.324219 Z M 506.394531 456.707031 "/>
<path fill-rule="nonzero" fill="rgb(100%, 100%, 100%)" fill-opacity="1" d="M 510.445312 453.164062 L 510.425781 452.457031 L 509.03125 452.3125 L 509.058594 453.382812 Z M 510.445312 453.164062 "/>
<path fill-rule="nonzero" fill="rgb(100%, 100%, 100%)" fill-opacity="1" d="M 502.851562 452.65625 L 502.871094 453.363281 L 504.261719 453.511719 L 504.234375 452.4375 Z M 502.851562 452.65625 "/>
<path fill-rule="nonzero" fill="rgb(100%, 100%, 100%)" fill-opacity="1" d="M 509.511719 450.40625 L 508.996094 449.921875 L 507.90625 450.800781 L 508.6875 451.539062 Z M 509.511719 450.40625 "/>
<path fill-rule="nonzero" fill="rgb(100%, 100%, 100%)" fill-opacity="1" d="M 503.78125 455.414062 L 504.296875 455.902344 L 505.386719 455.019531 L 504.605469 454.28125 Z M 503.78125 455.414062 "/>
<path fill-rule="nonzero" fill="rgb(100%, 100%, 100%)" fill-opacity="1" d="M 509.152344 455.777344 L 509.636719 455.261719 L 508.753906 454.171875 L 508.015625 454.953125 Z M 509.152344 455.777344 "/>
<path fill-rule="nonzero" fill="rgb(100%, 100%, 100%)" fill-opacity="1" d="M 504.144531 450.046875 L 503.65625 450.558594 L 504.539062 451.648438 L 505.277344 450.871094 Z M 504.144531 450.046875 "/>
<path fill-rule="nonzero" fill="rgb(100%, 100%, 100%)" fill-opacity="1" d="M 506.613281 451.621094 C 505.902344 451.640625 505.339844 452.234375 505.355469 452.945312 C 505.378906 453.65625 505.96875 454.21875 506.679688 454.199219 C 507.390625 454.183594 507.957031 453.589844 507.9375 452.878906 C 507.917969 452.167969 507.324219 451.605469 506.613281 451.621094 M 506.6875 454.523438 C 505.800781 454.542969 505.058594 453.839844 505.035156 452.953125 C 505.011719 452.066406 505.71875 451.324219 506.605469 451.300781 C 507.492188 451.277344 508.234375 451.980469 508.257812 452.871094 C 508.28125 453.757812 507.578125 454.5 506.6875 454.523438 "/>
<path fill-rule="nonzero" fill="rgb(100%, 100%, 100%)" fill-opacity="1" d="M 510.058594 438.773438 C 509.222656 438.792969 508.5625 439.492188 508.582031 440.328125 C 508.605469 441.160156 509.300781 441.824219 510.136719 441.800781 C 510.972656 441.78125 511.632812 441.082031 511.613281 440.246094 C 511.589844 439.414062 510.894531 438.75 510.058594 438.773438 M 510.152344 442.394531 C 508.992188 442.425781 508.019531 441.503906 507.988281 440.34375 C 507.957031 439.179688 508.878906 438.210938 510.042969 438.179688 C 511.203125 438.148438 512.175781 439.070312 512.207031 440.230469 C 512.238281 441.394531 511.316406 442.363281 510.152344 442.394531 "/>
<path fill-rule="nonzero" fill="rgb(100%, 100%, 100%)" fill-opacity="1" d="M 510.285156 437.480469 L 509.761719 437.492188 L 509.652344 438.523438 L 510.445312 438.503906 Z M 510.285156 437.480469 "/>
<path fill-rule="nonzero" fill="rgb(100%, 100%, 100%)" fill-opacity="1" d="M 509.910156 443.09375 L 510.433594 443.078125 L 510.542969 442.050781 L 509.75 442.070312 Z M 509.910156 443.09375 "/>
<path fill-rule="nonzero" fill="rgb(100%, 100%, 100%)" fill-opacity="1" d="M 512.90625 440.472656 L 512.890625 439.953125 L 511.859375 439.84375 L 511.882812 440.636719 Z M 512.90625 440.472656 "/>
<path fill-rule="nonzero" fill="rgb(100%, 100%, 100%)" fill-opacity="1" d="M 507.289062 440.097656 L 507.304688 440.621094 L 508.335938 440.730469 L 508.3125 439.9375 Z M 507.289062 440.097656 "/>
<path fill-rule="nonzero" fill="rgb(100%, 100%, 100%)" fill-opacity="1" d="M 512.214844 438.433594 L 511.835938 438.074219 L 511.03125 438.726562 L 511.605469 439.273438 Z M 512.214844 438.433594 "/>
<path fill-rule="nonzero" fill="rgb(100%, 100%, 100%)" fill-opacity="1" d="M 507.980469 442.140625 L 508.359375 442.5 L 509.164062 441.847656 L 508.589844 441.300781 Z M 507.980469 442.140625 "/>
<path fill-rule="nonzero" fill="rgb(100%, 100%, 100%)" fill-opacity="1" d="M 511.949219 442.40625 L 512.308594 442.023438 L 511.65625 441.21875 L 511.109375 441.796875 Z M 511.949219 442.40625 "/>
<path fill-rule="nonzero" fill="rgb(100%, 100%, 100%)" fill-opacity="1" d="M 508.246094 438.167969 L 507.886719 438.546875 L 508.539062 439.355469 L 509.085938 438.777344 Z M 508.246094 438.167969 "/>
<path fill-rule="nonzero" fill="rgb(100%, 100%, 100%)" fill-opacity="1" d="M 510.074219 439.332031 C 509.546875 439.347656 509.132812 439.785156 509.144531 440.3125 C 509.160156 440.835938 509.597656 441.253906 510.125 441.242188 C 510.648438 441.226562 511.0625 440.789062 511.050781 440.261719 C 511.039062 439.738281 510.597656 439.320312 510.074219 439.332031 M 510.128906 441.476562 C 509.472656 441.496094 508.925781 440.972656 508.90625 440.320312 C 508.890625 439.660156 509.410156 439.113281 510.066406 439.097656 C 510.722656 439.078125 511.269531 439.597656 511.289062 440.253906 C 511.304688 440.914062 510.785156 441.460938 510.128906 441.476562 "/>
<path fill-rule="nonzero" fill="rgb(100%, 100%, 100%)" fill-opacity="1" d="M 499.007812 458.605469 C 498.910156 457.796875 499.488281 457.066406 500.292969 456.972656 C 501.101562 456.875 501.832031 457.453125 501.929688 458.261719 C 502.023438 459.066406 501.445312 459.796875 500.640625 459.894531 C 499.835938 459.988281 499.101562 459.410156 499.007812 458.605469 M 500.089844 462.269531 L 501.730469 462.078125 L 501.640625 461.328125 C 501.886719 461.226562 502.113281 461.101562 502.320312 460.945312 L 502.914062 461.414062 L 503.9375 460.117188 L 503.34375 459.648438 C 503.445312 459.410156 503.515625 459.160156 503.558594 458.898438 L 504.304688 458.8125 L 504.109375 457.167969 L 503.363281 457.257812 C 503.265625 457.015625 503.136719 456.785156 502.984375 456.578125 L 503.449219 455.984375 L 502.152344 454.960938 L 501.683594 455.554688 C 501.445312 455.453125 501.195312 455.382812 500.933594 455.34375 L 500.847656 454.59375 L 499.203125 454.789062 L 499.292969 455.535156 C 499.050781 455.636719 498.820312 455.765625 498.613281 455.917969 L 498.023438 455.449219 L 496.996094 456.746094 L 497.589844 457.214844 C 497.488281 457.453125 497.417969 457.703125 497.378906 457.964844 L 496.628906 458.050781 L 496.824219 459.695312 L 497.570312 459.605469 C 497.671875 459.851562 497.800781 460.078125 497.953125 460.285156 L 497.484375 460.878906 L 498.785156 461.902344 L 499.25 461.308594 C 499.488281 461.410156 499.738281 461.480469 500 461.523438 Z M 500.089844 462.269531 "/>
<path fill-rule="nonzero" fill="rgb(100%, 100%, 100%)" fill-opacity="1" d="M 492.046875 459.003906 C 491.734375 458.488281 491.894531 457.816406 492.40625 457.503906 C 492.917969 457.1875 493.59375 457.351562 493.90625 457.863281 C 494.222656 458.375 494.058594 459.046875 493.546875 459.363281 C 493.035156 459.675781 492.359375 459.515625 492.046875 459.003906 M 493.914062 461.132812 L 494.957031 460.492188 L 494.664062 460.015625 C 494.800781 459.875 494.910156 459.71875 495.003906 459.550781 L 495.550781 459.679688 L 495.835938 458.488281 L 495.289062 458.355469 C 495.285156 458.167969 495.253906 457.976562 495.199219 457.789062 L 495.679688 457.496094 L 495.039062 456.449219 L 494.5625 456.742188 C 494.417969 456.609375 494.261719 456.496094 494.09375 456.402344 L 494.226562 455.859375 L 493.03125 455.574219 L 492.902344 456.117188 C 492.710938 456.125 492.519531 456.152344 492.332031 456.207031 L 492.039062 455.730469 L 490.996094 456.371094 L 491.289062 456.847656 C 491.152344 456.988281 491.039062 457.148438 490.949219 457.316406 L 490.40625 457.183594 L 490.117188 458.375 L 490.664062 458.507812 C 490.667969 458.695312 490.699219 458.890625 490.753906 459.074219 L 490.277344 459.367188 L 490.914062 460.414062 L 491.394531 460.121094 C 491.535156 460.253906 491.691406 460.367188 491.859375 460.460938 L 491.730469 461.003906 L 492.921875 461.289062 L 493.050781 460.746094 C 493.242188 460.738281 493.433594 460.710938 493.621094 460.65625 Z M 493.914062 461.132812 "/>
<path fill-rule="nonzero" fill="rgb(100%, 100%, 100%)" fill-opacity="1" d="M 495.410156 464.085938 C 495.164062 463.679688 495.292969 463.152344 495.695312 462.90625 C 496.097656 462.65625 496.628906 462.785156 496.875 463.1875 C 497.121094 463.589844 496.992188 464.121094 496.589844 464.367188 C 496.1875 464.613281 495.65625 464.488281 495.410156 464.085938 M 496.878906 465.761719 L 497.699219 465.257812 L 497.472656 464.882812 C 497.574219 464.769531 497.664062 464.644531 497.738281 464.515625 L 498.164062 464.617188 L 498.390625 463.679688 L 497.964844 463.578125 C 497.957031 463.429688 497.933594 463.277344 497.890625 463.128906 L 498.265625 462.898438 L 497.765625 462.078125 L 497.390625 462.308594 C 497.277344 462.203125 497.152344 462.113281 497.019531 462.039062 L 497.125 461.613281 L 496.1875 461.390625 L 496.085938 461.816406 C 495.933594 461.820312 495.78125 461.84375 495.636719 461.886719 L 495.40625 461.511719 L 494.585938 462.015625 L 494.8125 462.390625 C 494.710938 462.503906 494.621094 462.625 494.546875 462.757812 L 494.121094 462.652344 L 493.894531 463.59375 L 494.324219 463.695312 C 494.328125 463.84375 494.351562 463.996094 494.394531 464.144531 L 494.019531 464.371094 L 494.523438 465.195312 L 494.894531 464.964844 C 495.007812 465.070312 495.132812 465.15625 495.265625 465.230469 L 495.160156 465.660156 L 496.097656 465.882812 L 496.199219 465.457031 C 496.351562 465.449219 496.503906 465.429688 496.648438 465.386719 Z M 496.878906 465.761719 "/>
<path fill-rule="nonzero" fill="rgb(100%, 100%, 100%)" fill-opacity="1" d="M 504.988281 436.835938 C 505.433594 436.910156 505.734375 437.332031 505.664062 437.773438 C 505.59375 438.21875 505.171875 438.523438 504.726562 438.449219 C 504.28125 438.378906 503.980469 437.957031 504.050781 437.511719 C 504.125 437.070312 504.542969 436.765625 504.988281 436.835938 M 502.71875 437.761719 L 503.132812 437.828125 C 503.148438 437.972656 503.183594 438.113281 503.234375 438.25 L 502.890625 438.492188 L 503.429688 439.238281 L 503.769531 438.992188 C 503.882812 439.082031 504.003906 439.160156 504.136719 439.21875 L 504.070312 439.632812 L 504.976562 439.78125 L 505.042969 439.367188 C 505.1875 439.351562 505.328125 439.320312 505.464844 439.269531 L 505.707031 439.609375 L 506.453125 439.070312 L 506.207031 438.730469 C 506.296875 438.621094 506.375 438.496094 506.433594 438.363281 L 506.847656 438.433594 L 506.996094 437.527344 L 506.582031 437.460938 C 506.566406 437.3125 506.53125 437.171875 506.480469 437.039062 L 506.824219 436.792969 L 506.285156 436.046875 L 505.945312 436.292969 C 505.835938 436.203125 505.710938 436.128906 505.578125 436.066406 L 505.644531 435.652344 L 504.742188 435.507812 L 504.671875 435.917969 C 504.527344 435.933594 504.386719 435.96875 504.253906 436.019531 L 504.007812 435.679688 L 503.261719 436.214844 L 503.507812 436.554688 C 503.417969 436.667969 503.339844 436.789062 503.28125 436.921875 L 502.867188 436.855469 Z M 502.71875 437.761719 "/>
<path fill-rule="nonzero" fill="rgb(100%, 100%, 100%)" fill-opacity="1" d="M 496.527344 440.292969 C 497.066406 440.234375 497.554688 440.625 497.613281 441.167969 C 497.671875 441.707031 497.28125 442.195312 496.742188 442.253906 C 496.199219 442.3125 495.710938 441.921875 495.652344 441.378906 C 495.59375 440.839844 495.984375 440.351562 496.527344 440.292969 M 494.183594 442.097656 L 494.6875 442.042969 C 494.753906 442.207031 494.835938 442.359375 494.9375 442.5 L 494.621094 442.894531 L 495.484375 443.585938 L 495.800781 443.195312 C 495.960938 443.261719 496.128906 443.3125 496.300781 443.339844 L 496.355469 443.84375 L 497.457031 443.722656 L 497.402344 443.21875 C 497.566406 443.15625 497.71875 443.070312 497.859375 442.96875 L 498.253906 443.285156 L 498.949219 442.421875 L 498.554688 442.105469 C 498.625 441.949219 498.671875 441.78125 498.703125 441.605469 L 499.203125 441.550781 L 499.082031 440.449219 L 498.582031 440.503906 C 498.515625 440.339844 498.429688 440.1875 498.332031 440.046875 L 498.648438 439.652344 L 497.785156 438.957031 L 497.464844 439.351562 C 497.308594 439.285156 497.140625 439.234375 496.964844 439.207031 L 496.914062 438.703125 L 495.808594 438.824219 L 495.867188 439.328125 C 495.699219 439.390625 495.546875 439.476562 495.410156 439.578125 L 495.015625 439.257812 L 494.320312 440.125 L 494.714844 440.441406 C 494.644531 440.597656 494.59375 440.765625 494.566406 440.941406 L 494.0625 440.996094 Z M 494.183594 442.097656 "/>
</svg>
